<svg width="265" height="237" viewBox="0 0 265 237" fill="none" xmlns="http://www.w3.org/2000/svg">
<path d="M142.648 97.1181C140.835 95.2427 139.586 92.8702 139.468 90.264C138.698 73.2048 137.887 24.2611 139.8 7.44375C140.157 4.30577 142.65 1.16245 145.619 2.23921C145.82 2.31203 146.032 2.39736 146.258 2.49628C154.452 6.08894 188.086 76.5758 198.708 99.2528C200.118 102.261 199.897 105.737 198.199 108.591C182.096 135.657 172.293 156.07 169.18 186.848C168.646 192.127 164.303 196.29 158.998 196.307C141.676 196.365 124.354 196.501 107.033 196.713C101.648 196.779 97.2024 192.573 96.655 187.215C93.7348 158.63 84.1448 133.012 67.7874 109.179C65.6663 106.089 65.3054 102.094 66.9772 98.7394C81.7572 69.0774 99.6753 32.6519 115.786 3.85623C116.369 2.81589 118.215 1.73384 119.884 0.930095C121.197 0.297577 122.736 0.454841 123.973 1.22558C124.771 1.72243 125.394 2.41702 125.596 3.3348C128.076 14.641 127.007 70.7063 126.756 89.3616C126.721 91.9867 125.645 94.4407 123.919 96.4188C117.166 104.158 110.042 116.135 118.446 122.787C137.137 137.584 164.989 120.219 142.648 97.1181Z" fill="#FEFEFE"/>
<path d="M54.2732 124.446C58.0979 126.503 59.8454 131.52 61.8409 135.055C86.0272 177.898 69.6745 196.502 51.3194 236.842L21.4506 236.797L0 236.746C14.5466 202.994 37.3875 157.455 54.2732 124.446Z" fill="#FEFEFE"/>
<path d="M209.413 124.108C209.677 124.199 209.957 124.253 210.205 124.382C214.858 126.813 259.136 223.818 265 236.761L243.864 236.881L215.122 237C206.345 221.759 196.033 197.726 189.317 181.426C192.733 158.982 199.959 144.381 209.413 124.108Z" fill="#FEFEFE"/>
</svg>
